<?xml version="1.0" encoding="UTF-8"?>
<svg width="27px" height="46px" viewBox="0 0 27 46" version="1.1" xmlns="http://www.w3.org/2000/svg" xmlns:xlink="http://www.w3.org/1999/xlink">
    <!-- Generator: Sketch 40.3 (33839) - http://www.bohemiancoding.com/sketch -->
    <title>Group 6</title>
    <desc>Created with Sketch.</desc>
    <defs></defs>
    <g id="L" stroke="none" stroke-width="1" fill="none" fill-rule="evenodd">
        <g id="Historia" transform="translate(-47.000000, -2164.000000)" fill="#FFFFFF">
            <g id="Group-6" transform="translate(47.000000, 2164.000000)">
                <path d="M4.486,41.842 L4.486,39.488 L5.828,39.488 C6.02600099,39.488 6.21666575,39.5026665 6.4,39.532 C6.58333425,39.5613335 6.74466597,39.6181662 6.884,39.7025 C7.02333403,39.7868338 7.13516625,39.9059992 7.2195,40.06 C7.30383376,40.2140008 7.346,40.4156654 7.346,40.665 C7.346,40.9143346 7.30383376,41.1159992 7.2195,41.27 C7.13516625,41.4240008 7.02333403,41.5431662 6.884,41.6275 C6.74466597,41.7118338 6.58333425,41.7686665 6.4,41.798 C6.21666575,41.8273335 6.02600099,41.842 5.828,41.842 L4.486,41.842 Z M2.759,38.146 L2.759,46 L4.486,46 L4.486,43.184 L6.301,43.184 C6.79233579,43.184 7.21033161,43.1125007 7.555,42.9695 C7.89966839,42.8264993 8.18016559,42.6376678 8.3965,42.403 C8.61283442,42.1683322 8.77049951,41.8988349 8.8695,41.5945 C8.9685005,41.2901651 9.018,40.9803349 9.018,40.665 C9.018,40.3423317 8.9685005,40.0306682 8.8695,39.73 C8.77049951,39.4293318 8.61283442,39.1616678 8.3965,38.927 C8.18016559,38.6923322 7.89966839,38.5035007 7.555,38.3605 C7.21033161,38.2174993 6.79233579,38.146 6.301,38.146 L2.759,38.146 Z M11.823,44.548 L11.823,39.598 L13.055,39.598 C13.4803355,39.598 13.8378319,39.6584994 14.1275,39.7795 C14.4171681,39.9005006 14.6499991,40.0746655 14.826,40.302 C15.0020009,40.5293345 15.1284996,40.8024984 15.2055,41.1215 C15.2825004,41.4405016 15.321,41.797998 15.321,42.194 C15.321,42.6266688 15.2660006,42.9933318 15.156,43.294 C15.0459995,43.5946682 14.8993343,43.8384991 14.716,44.0255 C14.5326658,44.2125009 14.3236678,44.3463329 14.089,44.427 C13.8543322,44.5076671 13.6123346,44.548 13.363,44.548 L11.823,44.548 Z M10.096,38.146 L10.096,46 L13.484,46 C14.0853363,46 14.6078311,45.8991677 15.0515,45.6975 C15.4951689,45.4958323 15.8654985,45.2190018 16.1625,44.867 C16.4595015,44.5149982 16.6813326,44.0970024 16.828,43.613 C16.9746674,43.1289976 17.048,42.6010029 17.048,42.029 C17.048,41.3763301 16.9581676,40.8080024 16.7785,40.324 C16.5988324,39.8399976 16.3495016,39.4366683 16.0305,39.114 C15.7114984,38.7913317 15.3338355,38.5493341 14.8975,38.388 C14.4611645,38.2266659 13.9900025,38.146 13.484,38.146 L10.096,38.146 Z M18.247,38.146 L18.247,46 L19.974,46 L19.974,42.755 L23.263,42.755 L23.263,41.413 L19.974,41.413 L19.974,39.598 L23.769,39.598 L23.769,38.146 L18.247,38.146 Z" id="PDF" opacity="0.799999952"></path>
                <path d="M18.873822,10.8650774 L25.5147084,10.8650774 C25.5199526,10.8642034 25.5260708,10.8642034 25.532189,10.8650774 C25.8940378,10.8650774 26.1877121,10.5714031 26.1877121,10.2095543 C26.1877121,9.98492835 26.0740881,9.78564932 25.90103,9.66765516 L16.5681287,0.194908878 C16.3810861,0.0061182159 16.0996481,-0.0498197581 15.8522974,0.0480716964 C15.6058207,0.150333305 15.444999,0.388943725 15.444999,0.655523133 L15.444999,7.43712845 C15.444999,9.32765716 16.9832933,10.8650774 18.873822,10.8650774 L18.873822,10.8650774 Z M16.7560453,2.25499958 L23.9484451,9.55403115 L18.873822,9.55403115 C17.7061168,9.55403115 16.7560453,8.60395962 16.7560453,7.43712845 L16.7560453,2.25499958 L16.7560453,2.25499958 Z M25.5147084,11.1779805 C25.1528596,11.1779805 24.8591852,11.4716548 24.8591852,11.8335036 L24.8591852,31.0805368 C24.8591852,32.3644881 23.8147184,33.408955 22.529893,33.408955 L3.6385904,33.408955 C2.35551312,33.408955 1.31104627,32.3644881 1.31104627,31.0805368 L1.31279433,3.57478615 C1.35212571,2.30481933 2.37386777,1.31104627 3.6385904,1.31104627 L14.4826911,1.31104627 C14.8445398,1.31104627 15.1382142,1.0173719 15.1382142,0.655523133 C15.1382142,0.293674363 14.8445398,0 14.4826911,0 L3.6385904,0 C1.6606586,0 0.0638042516,1.55227878 0.00262209253,3.55380941 L0,31.0805368 C0,33.0873116 1.63268962,34.7200012 3.6385904,34.7200012 L22.529893,34.7200012 C24.5366679,34.7200012 26.1702315,33.0873116 26.1702315,31.0805368 L26.1702315,11.8335036 C26.1702315,11.4716548 25.8765571,11.1779805 25.5147084,11.1779805 L25.5147084,11.1779805 Z" id="Fill-79"></path>
            </g>
        </g>
    </g>
</svg>