<?xml version="1.0" encoding="UTF-8"?>
<svg width="31px" height="44px" viewBox="0 0 31 44" version="1.1" xmlns="http://www.w3.org/2000/svg" xmlns:xlink="http://www.w3.org/1999/xlink">
    <!-- Generator: Sketch 40.3 (33839) - http://www.bohemiancoding.com/sketch -->
    <title>Group 8</title>
    <desc>Created with Sketch.</desc>
    <defs></defs>
    <g id="L" stroke="none" stroke-width="1" fill="none" fill-rule="evenodd">
        <g id="Historia" transform="translate(-370.000000, -2166.000000)" fill="#FFFFFF">
            <g id="Group-8" transform="translate(370.000000, 2166.000000)">
                <path d="M6.759,36.146 L6.759,44 L8.376,44 L8.376,38.489 L8.398,38.489 L10.323,44 L11.654,44 L13.579,38.434 L13.601,38.434 L13.601,44 L15.218,44 L15.218,36.146 L12.787,36.146 L11.049,41.547 L11.027,41.547 L9.19,36.146 L6.759,36.146 Z M16.736,36.146 L16.736,44 L18.463,44 L18.463,36.146 L16.736,36.146 Z M21.708,42.548 L21.708,37.598 L22.94,37.598 C23.3653355,37.598 23.7228319,37.6584994 24.0125,37.7795 C24.3021681,37.9005006 24.5349991,38.0746655 24.711,38.302 C24.8870009,38.5293345 25.0134996,38.8024984 25.0905,39.1215 C25.1675004,39.4405016 25.206,39.797998 25.206,40.194 C25.206,40.6266688 25.1510006,40.9933318 25.041,41.294 C24.9309995,41.5946682 24.7843343,41.8384991 24.601,42.0255 C24.4176658,42.2125009 24.2086678,42.3463329 23.974,42.427 C23.7393322,42.5076671 23.4973346,42.548 23.248,42.548 L21.708,42.548 Z M19.981,36.146 L19.981,44 L23.369,44 C23.9703363,44 24.4928311,43.8991677 24.9365,43.6975 C25.3801689,43.4958323 25.7504985,43.2190018 26.0475,42.867 C26.3445015,42.5149982 26.5663326,42.0970024 26.713,41.613 C26.8596674,41.1289976 26.933,40.6010029 26.933,40.029 C26.933,39.3763301 26.8431676,38.8080024 26.6635,38.324 C26.4838324,37.8399976 26.2345016,37.4366683 25.9155,37.114 C25.5964984,36.7913317 25.2188355,36.5493341 24.7825,36.388 C24.3461645,36.2266659 23.8750025,36.146 23.369,36.146 L19.981,36.146 Z M28.132,36.146 L28.132,44 L29.859,44 L29.859,36.146 L28.132,36.146 Z" id="MIDI" opacity="0.799999952"></path>
                <path d="M29.4339117,0 L11.3659678,0 C10.6579382,0 10.1231727,0.411412931 10.1231727,0.956873749 L10.1231727,8.43004347 C10.1231727,8.5070497 10.1367201,8.58049083 10.1566847,8.6517929 L10.1566847,25.0327299 C9.19410678,24.0238057 7.57554984,23.3585574 5.74094764,23.3585574 C2.79617224,23.3585574 0.398996724,25.0719461 0.398996724,27.1782092 C0.398996724,29.2851853 2.79617224,31 5.74094764,31 C8.55024911,31 10.8533059,29.4391977 11.0615079,27.4676956 C11.1627569,27.3700117 11.2262157,27.2345378 11.2262157,27.0840904 L11.2262157,9.37693493 C11.2725621,9.37978701 11.3181954,9.38691722 11.3659678,9.38691722 L29.4339117,9.38691722 C29.4938055,9.38691722 29.5508471,9.37978701 29.6078888,9.37479587 L29.6078888,21.0904386 C28.6417458,20.1014789 27.0403013,19.4512041 25.2285158,19.4512041 C22.2837404,19.4512041 19.8872779,21.1653058 19.8872779,23.2722819 C19.8872779,25.379258 22.2837404,27.0933597 25.2285158,27.0933597 C27.7469048,27.0933597 29.8588721,25.8384433 30.4200193,24.1585666 C30.5718927,24.0637348 30.6774198,23.9040182 30.6774198,23.7122157 L30.6774198,0.956873749 C30.6774198,0.411412931 30.1433673,0 29.4339117,0 L29.4339117,0 Z M5.74094764,29.930469 C3.42505648,29.930469 1.46852774,28.6698484 1.46852774,27.1782092 C1.46852774,25.687996 3.42505648,24.4280884 5.74094764,24.4280884 C8.0568388,24.4280884 10.0126545,25.687996 10.0126545,27.1782092 C10.0126545,28.6698484 8.0568388,29.930469 5.74094764,29.930469 L5.74094764,29.930469 Z M25.2285158,26.0238287 C22.9133376,26.0238287 20.9575219,24.7639212 20.9575219,23.2722819 C20.9575219,21.7806426 22.9133376,20.5207351 25.2285158,20.5207351 C27.54512,20.5207351 29.5009357,21.7806426 29.5009357,23.2722819 C29.5009357,24.7639212 27.54512,26.0238287 25.2285158,26.0238287 L25.2285158,26.0238287 Z M29.6078888,8.29171746 C29.5672466,8.30526485 29.5094919,8.3173862 29.4339117,8.3173862 L11.3659678,8.3173862 C11.305361,8.3173862 11.2640058,8.30740391 11.2262157,8.2967086 L11.2262157,7.99937898 C11.2262157,7.94091129 11.2098162,7.88672171 11.1927037,7.83467121 L11.1927037,1.09519976 C11.2333459,1.08236539 11.2911006,1.06953102 11.3659678,1.06953102 L29.4339117,1.06953102 C29.5094919,1.06953102 29.5672466,1.08236539 29.6078888,1.09519976 L29.6078888,8.29171746 L29.6078888,8.29171746 Z" id="Fill-127"></path>
            </g>
        </g>
    </g>
</svg>